<svg width="32" height="32" viewBox="0 0 32 32" fill="none" xmlns="http://www.w3.org/2000/svg">
<path d="M28.889 25.0222C28.9001 25.0045 28.9089 24.9847 28.9178 24.967C28.9266 24.9471 28.9377 24.9272 28.9465 24.9073C28.9576 24.883 28.9664 24.8587 28.9752 24.8344C28.9841 24.8123 28.9907 24.7902 28.9973 24.7658C28.9973 24.7592 29.0018 24.7526 29.0018 24.7459C29.0062 24.7283 29.0106 24.7128 29.015 24.6951C29.015 24.6885 29.0172 24.6819 29.0194 24.6752C29.0239 24.6509 29.0283 24.6288 29.0327 24.6045C29.0393 24.5514 29.0438 24.4984 29.0438 24.4431V1.18247C29.0438 1.18247 29.0438 1.17363 29.0438 1.17142C29.0438 1.14932 29.0438 1.12942 29.0438 1.10953C29.0438 1.1029 29.0438 1.09406 29.0438 1.08743C29.0438 1.07859 29.0438 1.06975 29.0415 1.06091C29.0415 1.05207 29.0415 1.04323 29.0393 1.03438C29.0393 1.02554 29.0393 1.01891 29.0371 1.01007C29.0349 0.990179 29.0305 0.970287 29.0283 0.952605C29.0283 0.948184 29.0283 0.943764 29.0261 0.939343C29.0217 0.915031 29.015 0.892928 29.0106 0.870826C29.0106 0.864195 29.0062 0.859774 29.0062 0.853144C29.0018 0.839882 28.9995 0.828831 28.9951 0.815569C28.9951 0.811149 28.9929 0.806728 28.9907 0.802308C28.9885 0.795677 28.9863 0.786836 28.9841 0.780205C28.9774 0.764734 28.973 0.747052 28.9664 0.73158C28.9642 0.724949 28.962 0.720529 28.9598 0.713898C28.9531 0.700636 28.9465 0.687375 28.9421 0.674113C28.9377 0.667483 28.9355 0.658642 28.931 0.652011C28.931 0.64759 28.9266 0.64317 28.9244 0.638749C28.9244 0.638749 28.9244 0.634329 28.9222 0.632119C28.9156 0.618857 28.9067 0.603385 28.9001 0.590124C28.8957 0.583493 28.8935 0.576862 28.889 0.570232C28.8802 0.55697 28.8714 0.543709 28.8647 0.530447C28.8603 0.523816 28.8581 0.519396 28.8537 0.512765C28.8448 0.499504 28.836 0.488452 28.8272 0.475191C28.8227 0.47077 28.8205 0.46414 28.8161 0.459719C28.8161 0.459719 28.8161 0.459719 28.8161 0.457509C28.8028 0.439827 28.7896 0.424355 28.7741 0.408883C28.7697 0.404463 28.7653 0.397832 28.7608 0.393412C28.7608 0.393412 28.7586 0.388991 28.7564 0.388991C28.7476 0.38015 28.7387 0.369099 28.7299 0.360258C28.7255 0.355837 28.7188 0.349207 28.7144 0.344786C28.7012 0.331525 28.6879 0.320473 28.6746 0.307212C28.6702 0.305002 28.668 0.300581 28.6658 0.298371C28.6658 0.298371 28.6614 0.296161 28.6614 0.29395C28.6459 0.280689 28.6304 0.267427 28.615 0.256376C28.6105 0.251956 28.6039 0.249745 28.5995 0.245325C28.5862 0.236484 28.573 0.225433 28.5597 0.216592C28.5531 0.212171 28.5464 0.207751 28.542 0.20333C28.5288 0.194489 28.5155 0.185648 28.5 0.176807C28.4956 0.174597 28.489 0.170176 28.4846 0.167966C28.4735 0.161335 28.4625 0.156915 28.4536 0.150284C28.4448 0.145864 28.4359 0.141443 28.4271 0.137023C28.4227 0.137023 28.4183 0.132602 28.4138 0.130392C28.4028 0.125971 28.3939 0.119341 28.3829 0.11492C28.3785 0.11271 28.3718 0.1105 28.3674 0.106079C28.3608 0.103869 28.3542 0.0994483 28.3475 0.097238C28.3321 0.0906073 28.3188 0.0839765 28.3033 0.079556C28.2967 0.0773458 28.2901 0.0751355 28.2834 0.0729253C28.2724 0.0685048 28.2635 0.0662945 28.2525 0.061874C28.2414 0.0574535 28.2304 0.0552433 28.2193 0.0508228C28.2193 0.0508228 28.2193 0.0508228 28.2171 0.0508228C28.2039 0.0464023 28.1906 0.044192 28.1773 0.0397715C28.1685 0.0397715 28.1619 0.035351 28.153 0.0331408C28.1464 0.0331408 28.1398 0.0309305 28.1331 0.0287203C28.1177 0.0242998 28.1022 0.0220895 28.0867 0.0198793C28.0801 0.0198793 28.0735 0.017669 28.0646 0.0154588C28.0558 0.0154588 28.0447 0.0132485 28.0359 0.0110383C28.027 0.0110383 28.0182 0.00882802 28.0094 0.00661777C28.0049 0.00661777 28.0005 0.00661777 27.9983 0.00661777C27.9762 0.00440752 27.9541 0.00219727 27.932 0.00219727C27.9254 0.00219727 27.9187 0.00219727 27.9143 0.00219727C27.8988 0.00219727 27.8834 0.00219727 27.8657 0.00219727C27.8657 0.00219727 27.8436 0.00219727 27.8325 0.00219727C27.8193 0.00219727 27.806 0.00219727 27.7905 0.00440752C27.7795 0.00440752 27.7684 0.00440752 27.7574 0.00661777C27.7463 0.00661777 27.7353 0.00882802 27.7242 0.0110383C27.722 0.0110383 27.7176 0.0110383 27.7154 0.0110383C27.7043 0.0110383 27.6933 0.0132485 27.6822 0.0154588C27.669 0.017669 27.6535 0.0198793 27.6402 0.0242998C27.6292 0.0242998 27.6181 0.0287203 27.6093 0.0309305C27.596 0.035351 27.5806 0.0375613 27.5673 0.0419818C27.5563 0.044192 27.5474 0.0486125 27.5364 0.0508228C27.5253 0.053033 27.5165 0.0574535 27.5054 0.061874C27.501 0.061874 27.4966 0.0640843 27.4922 0.0662945C27.4833 0.070715 27.4723 0.0729253 27.4634 0.0773458C27.448 0.0839765 27.4325 0.0906073 27.417 0.097238C27.4082 0.101659 27.4015 0.103869 27.3927 0.108289C27.3684 0.119341 27.3441 0.130392 27.322 0.143653L21.9422 3.03687V6.38761L24.3713 5.08135C25.1581 4.65919 26.1108 5.22723 26.1108 6.12017V22.6772C26.1108 23.1126 25.872 23.5104 25.4897 23.716L16.5802 28.5078C16.2309 28.6957 15.811 28.6957 15.4618 28.5078L6.55225 23.716C6.16988 23.5104 5.93117 23.1104 5.93117 22.6772V21.1477L3.19488 19.6668C3.11974 19.627 3.04901 19.5806 2.98049 19.532V24.4409H2.95618C2.95618 24.4652 2.95618 24.4896 2.95839 24.5139C2.95839 24.5205 2.95839 24.5271 2.95839 24.536C2.95839 24.5537 2.9606 24.5713 2.96281 24.589C2.96281 24.5957 2.96281 24.6023 2.96502 24.6111C2.97607 24.6885 2.99375 24.7614 3.02027 24.8344C3.02911 24.8587 3.03796 24.883 3.04901 24.9073C3.05785 24.9294 3.0689 24.9493 3.07995 24.9714C3.08216 24.978 3.08658 24.9847 3.08879 24.9891C3.09763 25.0045 3.10647 25.02 3.1131 25.0355C3.11752 25.0421 3.11974 25.0465 3.12416 25.0532C3.14847 25.093 3.17499 25.1327 3.20372 25.1703C3.20815 25.1747 3.21257 25.1814 3.21699 25.1858C3.22804 25.199 3.23909 25.2123 3.25014 25.2256C3.25456 25.23 3.25898 25.2366 3.2634 25.241C3.35181 25.3361 3.45348 25.4179 3.57063 25.4797L15.433 31.8585C15.433 31.8585 15.433 31.8585 15.4352 31.8585C15.4573 31.8696 15.4772 31.8806 15.4993 31.8917C15.5214 31.9027 15.5436 31.9116 15.5679 31.9204C15.59 31.9293 15.6143 31.9381 15.6386 31.9447C15.6386 31.9447 15.6386 31.9447 15.6408 31.9447C15.6629 31.9514 15.6872 31.958 15.7093 31.9646C15.7579 31.9757 15.8044 31.9845 15.853 31.9911C15.8751 31.9934 15.8994 31.9956 15.9215 31.9978C16.1359 32.011 16.3547 31.9646 16.5492 31.8585L28.4116 25.4797C28.4359 25.4665 28.458 25.4532 28.4801 25.44C28.4912 25.4333 28.5022 25.4267 28.5111 25.4179C28.5221 25.4112 28.5332 25.4046 28.5442 25.3958C28.5575 25.3847 28.5708 25.3759 28.5862 25.3648C28.5929 25.3604 28.5995 25.356 28.6061 25.3493C28.6216 25.3361 28.6371 25.3228 28.6525 25.3096C28.657 25.3074 28.6592 25.3029 28.6636 25.3007C28.6791 25.2852 28.6967 25.2698 28.7122 25.2521C28.7122 25.2521 28.7144 25.2477 28.7166 25.2477C28.7321 25.23 28.7498 25.2123 28.7653 25.1946C28.7962 25.1571 28.8272 25.1151 28.8537 25.0731C28.8647 25.0576 28.8736 25.0399 28.8846 25.0222H28.889Z" fill="url(#paint0_linear_1316_1707)"/>
<path d="M19.8734 0C19.8734 0 19.8513 0 19.8403 0C19.8403 0 19.8359 0 19.8336 0C19.8226 0 19.8115 0 19.7983 0C19.7872 0 19.7762 0 19.7651 0.00221025C19.7519 0.00221025 19.7386 0.0044205 19.7231 0.00663075C19.7121 0.00663075 19.701 0.008841 19.69 0.0110513C19.6767 0.0110513 19.6657 0.0154717 19.6524 0.017682C19.6524 0.017682 19.6502 0.017682 19.648 0.017682C19.6369 0.0198922 19.6259 0.0221025 19.617 0.0243127C19.6082 0.0243127 19.6016 0.0287333 19.5927 0.0309435C19.5861 0.0309435 19.5817 0.0331538 19.575 0.035364C19.564 0.0375743 19.5552 0.0419948 19.5441 0.044205C19.5353 0.0464153 19.5264 0.0508358 19.5198 0.053046C19.5132 0.053046 19.5065 0.0574665 19.4999 0.0596768C19.4911 0.061887 19.4822 0.0663075 19.4734 0.0685178C19.4734 0.0685178 19.4734 0.0685178 19.4712 0.0685178C19.4623 0.070728 19.4557 0.0751485 19.4469 0.079569C19.438 0.0817793 19.4314 0.0861998 19.4225 0.08841C19.4181 0.08841 19.4159 0.0906202 19.4115 0.0928305C19.4071 0.0928305 19.4026 0.097251 19.3982 0.0994613C19.385 0.106092 19.3717 0.112723 19.3584 0.119354C19.3496 0.123774 19.3385 0.128195 19.3297 0.134825L15.2452 2.33181V5.68255L16.379 5.07252C16.8631 4.81171 17.4112 4.92886 17.7604 5.26482C17.7737 5.27587 17.7847 5.28913 17.798 5.30239C17.798 5.3046 17.8024 5.30681 17.8046 5.30902C17.8422 5.34881 17.8754 5.3908 17.9085 5.435C17.9085 5.435 17.9085 5.43501 17.9085 5.43722C17.9174 5.45048 17.9262 5.46153 17.9328 5.47479C17.9373 5.48142 17.9395 5.48584 17.9439 5.49247C17.9505 5.50352 17.9594 5.51678 17.966 5.52784C17.9704 5.53447 17.9748 5.5411 17.977 5.54994C17.9859 5.56762 17.9969 5.5853 18.0036 5.60519C18.0102 5.61625 18.0146 5.62951 18.019 5.64056C18.0235 5.65161 18.0279 5.66045 18.0323 5.6715C18.0367 5.68255 18.0411 5.6936 18.0456 5.70687C18.05 5.71571 18.0522 5.72676 18.0566 5.7356C18.061 5.74886 18.0654 5.76212 18.0699 5.77538C18.0721 5.78422 18.0743 5.79307 18.0765 5.80191C18.0831 5.82401 18.0875 5.84611 18.092 5.86821C18.092 5.87484 18.092 5.87926 18.0942 5.8859C18.0986 5.90358 18.1008 5.92126 18.103 5.93894C18.103 5.94778 18.103 5.95441 18.1052 5.96325C18.1052 5.98094 18.1096 5.99641 18.1096 6.01409C18.1096 6.02072 18.1096 6.02956 18.1096 6.03619C18.1096 6.06051 18.1119 6.08482 18.1119 6.11134V16.1127C18.1119 16.5459 17.8732 16.946 17.493 17.1515L12.5686 19.8149C12.2171 20.005 11.795 20.005 11.4457 19.8149L6.52131 17.1515C6.13894 16.946 5.90244 16.5459 5.90244 16.1127V14.749L3.17499 13.288C3.09763 13.246 3.02469 13.2018 2.95618 13.151V13.94V17.8809C2.95618 18.3141 3.19488 18.7142 3.57505 18.9197L5.90686 20.1818L11.4502 23.1811C11.4833 23.1988 11.5187 23.2143 11.554 23.2297C11.6756 23.2806 11.8038 23.3115 11.9342 23.3203C11.9607 23.3203 11.9873 23.3226 12.0138 23.3226C12.0403 23.3226 12.0668 23.3226 12.0933 23.3203C12.2039 23.3137 12.3144 23.2894 12.4205 23.2496C12.4735 23.2297 12.5266 23.2076 12.5752 23.1789L20.4525 18.9175C20.8349 18.712 21.0714 18.3119 21.0714 17.8787V1.18248C21.0714 1.15817 21.0714 1.13386 21.0692 1.10955C21.0692 1.10291 21.0692 1.09407 21.0692 1.08744C21.0692 1.08302 21.0692 1.0786 21.0692 1.07418C21.0692 1.06092 21.067 1.04766 21.0648 1.0344C21.0648 1.02556 21.0648 1.01893 21.0625 1.01008C21.0603 0.990192 21.0559 0.9703 21.0537 0.952618C21.0537 0.952618 21.0537 0.948197 21.0537 0.945987C21.0537 0.943777 21.0537 0.941567 21.0537 0.939356C21.0515 0.928305 21.0493 0.917254 21.0449 0.906202C21.0427 0.895151 21.0404 0.88189 21.036 0.870839C21.036 0.864208 21.0316 0.857577 21.0316 0.853157C21.0272 0.835474 21.0228 0.820003 21.0161 0.804531C21.0139 0.7979 21.0117 0.789059 21.0095 0.782429C21.0029 0.766957 20.9984 0.751485 20.9918 0.733803C20.9896 0.727172 20.9874 0.722752 20.9852 0.716121C20.9763 0.696229 20.9675 0.674126 20.9565 0.654234C20.9565 0.649814 20.952 0.645393 20.9498 0.640973C20.9432 0.625501 20.9344 0.612239 20.9255 0.598978C20.9255 0.598978 20.9255 0.596768 20.9233 0.594557C20.9189 0.587927 20.9167 0.583506 20.9122 0.576875C20.9056 0.563614 20.8968 0.552563 20.8879 0.539301C20.8879 0.539301 20.8879 0.539301 20.8879 0.537091C20.8835 0.53267 20.8813 0.526039 20.8769 0.521619C20.8703 0.510568 20.8636 0.501727 20.8548 0.492886C20.8482 0.484045 20.8437 0.477414 20.8371 0.468573C20.8371 0.468573 20.8371 0.468573 20.8349 0.466363C20.8216 0.448681 20.8084 0.433209 20.7951 0.417737C20.7907 0.413317 20.7863 0.406686 20.7818 0.402266C20.7708 0.391214 20.7597 0.380163 20.7487 0.366901C20.7443 0.362481 20.7376 0.35585 20.7332 0.35143C20.7266 0.344799 20.72 0.340378 20.7133 0.333748C20.7067 0.327117 20.7001 0.320486 20.6934 0.316066C20.689 0.313855 20.6868 0.309435 20.6846 0.307225C20.6691 0.291753 20.6514 0.278492 20.6338 0.26523C20.6293 0.26081 20.6249 0.258599 20.6205 0.254179C20.6072 0.245338 20.594 0.234287 20.5807 0.225445C20.5785 0.225445 20.5741 0.221025 20.5719 0.218815C20.5674 0.216605 20.5652 0.214394 20.5608 0.212184C20.5542 0.207763 20.5498 0.205553 20.5431 0.201133C20.5343 0.196712 20.5277 0.190081 20.5188 0.185661C20.5144 0.183451 20.5078 0.17903 20.5034 0.17682C20.4879 0.167979 20.4724 0.159138 20.4569 0.150297C20.4525 0.150297 20.4503 0.145876 20.4459 0.143666C20.4415 0.143666 20.437 0.139246 20.4326 0.137036C20.4172 0.128195 20.4017 0.121564 20.384 0.114933C20.3818 0.114933 20.3774 0.112723 20.3752 0.110513C20.3707 0.110513 20.3685 0.108302 20.3641 0.106092C20.3486 0.0994613 20.3354 0.0928305 20.3199 0.08841C20.3133 0.0861998 20.3066 0.0839895 20.3 0.0817793C20.2934 0.079569 20.2845 0.0773588 20.2779 0.0751485C20.2646 0.070728 20.2514 0.0663075 20.2381 0.061887C20.2381 0.061887 20.2381 0.061887 20.2359 0.061887C20.2337 0.061887 20.2293 0.061887 20.2271 0.0596768C20.2094 0.0552563 20.1917 0.0508358 20.174 0.0464153C20.1674 0.0464153 20.1608 0.044205 20.1541 0.0419948C20.1387 0.0375743 20.1232 0.035364 20.1077 0.0331538C20.1011 0.0331538 20.0945 0.0309435 20.0856 0.0287332C20.0679 0.026523 20.048 0.0243128 20.0304 0.0221025C20.0259 0.0221025 20.0215 0.0221025 20.0193 0.0221025C19.9972 0.0198923 19.9751 0.017682 19.953 0.017682C19.9464 0.017682 19.9397 0.017682 19.9353 0.017682C19.9198 0.017682 19.9044 0.017682 19.8867 0.017682L19.8734 0Z" fill="url(#paint1_linear_1316_1707)"/>
<path d="M3.13298 5.44378C3.13298 5.44378 3.12414 5.45704 3.11972 5.46367C3.09541 5.50567 3.0711 5.54987 3.05341 5.59629C3.0512 5.60292 3.04678 5.61176 3.04457 5.61839C3.03794 5.63386 3.03131 5.64933 3.02689 5.66481C3.02468 5.67365 3.02026 5.68249 3.01805 5.69133C3.01363 5.7068 3.00921 5.72006 3.00479 5.73553C3.00258 5.74438 3.00037 5.75543 2.99595 5.76427C2.99153 5.77974 2.98932 5.793 2.9849 5.80847C2.9849 5.81731 2.98048 5.82836 2.97827 5.83721C2.97606 5.85268 2.97164 5.86815 2.96943 5.88362C2.96943 5.89246 2.96722 5.90351 2.965 5.91235C2.965 5.93004 2.96058 5.94551 2.96058 5.96319C2.96058 5.97203 2.96058 5.97866 2.96058 5.9875C2.96058 6.01182 2.95837 6.03834 2.95837 6.06486V11.4999C2.95837 11.9353 3.19708 12.3331 3.57945 12.5387L8.11931 14.981C8.29392 15.0738 8.48621 15.1225 8.6785 15.1225C8.87079 15.1225 9.06308 15.076 9.23769 14.981L13.7775 12.5387C13.8262 12.5122 13.8704 12.4834 13.9146 12.4525C13.9588 12.4215 13.9986 12.3862 14.0361 12.3508C14.1047 12.2845 14.1666 12.2094 14.2174 12.1276C14.3345 11.9419 14.3986 11.7253 14.3986 11.4977V2.7959V1.83002V1.18021C14.3986 1.16032 14.3986 1.14042 14.3986 1.12053C14.3986 1.11611 14.3986 1.10948 14.3986 1.10506C14.3986 1.09843 14.3986 1.08959 14.3986 1.08296C14.3986 1.07412 14.3986 1.06307 14.3964 1.05422C14.3964 1.04759 14.3964 1.03875 14.3942 1.03212C14.3942 1.02549 14.3942 1.02107 14.392 1.01444C14.392 1.01444 14.392 1.01002 14.392 1.00781C14.3898 0.987917 14.3854 0.970235 14.3832 0.950343C14.3832 0.945922 14.3832 0.941501 14.3809 0.937081C14.3765 0.914979 14.3721 0.892876 14.3655 0.872984C14.3655 0.872984 14.3655 0.870774 14.3655 0.868563C14.3655 0.861933 14.3611 0.855302 14.3611 0.850881C14.3611 0.846461 14.3588 0.844251 14.3566 0.83983C14.3522 0.826569 14.35 0.813307 14.3456 0.802256C14.3434 0.795625 14.3412 0.786784 14.339 0.780153C14.3323 0.764682 14.3279 0.74921 14.3213 0.731528C14.3213 0.731528 14.3213 0.727107 14.3191 0.727107C14.3191 0.722687 14.3168 0.718266 14.3146 0.716056C14.3102 0.707215 14.3058 0.696164 14.3014 0.687323C14.297 0.676272 14.2925 0.66522 14.2859 0.654169C14.2859 0.654169 14.2837 0.649749 14.2815 0.647538C14.2815 0.647538 14.2793 0.643118 14.2793 0.640908C14.2704 0.625436 14.2638 0.609964 14.255 0.594492C14.2505 0.587862 14.2483 0.581231 14.2439 0.5746C14.2373 0.563549 14.2306 0.552498 14.2218 0.541446C14.2218 0.541446 14.2196 0.537026 14.2174 0.534816C14.2174 0.534816 14.2174 0.532605 14.2152 0.530395C14.213 0.525975 14.2085 0.521554 14.2063 0.517134C14.1931 0.499452 14.182 0.48177 14.1666 0.464088C14.1666 0.464088 14.1666 0.464088 14.1643 0.461877C14.1621 0.457457 14.1577 0.455247 14.1555 0.450826C14.1444 0.437565 14.1356 0.424303 14.1246 0.413252C14.1223 0.411042 14.1201 0.406621 14.1179 0.404411C14.1157 0.402201 14.1135 0.39999 14.1113 0.39778C14.1113 0.39778 14.1091 0.39557 14.1069 0.39336C14.098 0.382308 14.0892 0.373467 14.0781 0.364626C14.0737 0.360206 14.0693 0.355785 14.0649 0.351365C14.0605 0.346944 14.0538 0.342524 14.0494 0.335893C14.0428 0.329262 14.0339 0.320421 14.0273 0.313791C14.0251 0.313791 14.0229 0.30937 14.0207 0.30716C14.0207 0.30716 14.0207 0.30716 14.0185 0.30495C14.003 0.289478 13.9853 0.276216 13.9676 0.262955C13.9654 0.260745 13.961 0.258534 13.9588 0.256324C13.9588 0.256324 13.9544 0.254114 13.9544 0.251904C13.9411 0.243063 13.9278 0.232011 13.9146 0.22317C13.908 0.21875 13.9013 0.214329 13.8969 0.209909C13.8836 0.201068 13.8704 0.192227 13.8549 0.183386C13.8505 0.181176 13.8439 0.176755 13.8394 0.174545C13.824 0.165704 13.8063 0.154653 13.7886 0.145812C13.7864 0.145812 13.7842 0.143601 13.782 0.141391C13.7775 0.141391 13.7731 0.136971 13.7687 0.13476C13.7687 0.13476 13.7665 0.13476 13.7643 0.13255C13.751 0.125919 13.7356 0.119289 13.7223 0.112658C13.7157 0.110448 13.709 0.106027 13.7024 0.103817C13.6869 0.0971861 13.6737 0.0905553 13.6582 0.0861348C13.6538 0.0861348 13.6494 0.0817143 13.6449 0.0817143C13.6449 0.0817143 13.6405 0.0817143 13.6383 0.0795041C13.6317 0.0795041 13.6273 0.0750836 13.6206 0.0728733C13.6051 0.0684528 13.5897 0.0618221 13.5742 0.0574016C13.5742 0.0574016 13.5742 0.0574016 13.572 0.0574016C13.5521 0.0507708 13.53 0.0463503 13.5101 0.0397196C13.5035 0.0397196 13.4968 0.0375093 13.4902 0.0352991C13.4747 0.0308786 13.4593 0.0286683 13.4438 0.0264581C13.4372 0.0264581 13.4305 0.0242478 13.4217 0.0220376C13.404 0.0198273 13.3841 0.0176171 13.3664 0.0154068C13.3664 0.0154068 13.3642 0.0154068 13.362 0.0154068C13.3598 0.0154068 13.3576 0.0154068 13.3554 0.0154068C13.3532 0.0154068 13.351 0.0154068 13.3465 0.0154068C13.3267 0.0154068 13.3068 0.0109863 13.2869 0.0109863C13.2825 0.0109863 13.2758 0.0109863 13.2714 0.0109863C13.2714 0.0109863 13.2714 0.0109863 13.2692 0.0109863C13.2537 0.0109863 13.236 0.0109863 13.2206 0.0109863C13.2139 0.0109863 13.2095 0.0109863 13.2029 0.0109863C13.1985 0.0109863 13.1918 0.0109863 13.1874 0.0109863C13.1741 0.0109863 13.1609 0.0109863 13.1454 0.0131966C13.141 0.0131966 13.1366 0.0131966 13.1344 0.0131966C13.1277 0.0131966 13.1211 0.0131966 13.1145 0.0131966C13.1012 0.0131966 13.0879 0.0154068 13.0725 0.0176171C13.0658 0.0176171 13.0614 0.0176171 13.0548 0.0198273C13.0504 0.0198273 13.0437 0.0198273 13.0393 0.0220376C13.0305 0.0220376 13.0216 0.0242478 13.015 0.0264581C13.0084 0.0264581 13.004 0.0264581 12.9973 0.0286683C12.9885 0.0286683 12.9796 0.0330888 12.9708 0.0352991C12.9708 0.0352991 12.9686 0.0352991 12.9664 0.0352991C12.9553 0.0375093 12.9443 0.0419298 12.9332 0.0441401C12.931 0.0441401 12.9266 0.0441401 12.9244 0.0463503C12.9133 0.0485606 12.9045 0.0529811 12.8934 0.0551913C12.8846 0.0574016 12.8736 0.0618221 12.8647 0.0640323C12.8603 0.0640323 12.8559 0.0662426 12.8492 0.0684528C12.8404 0.0728733 12.8294 0.0750836 12.8205 0.0795041C12.805 0.0861348 12.7874 0.0927656 12.7719 0.0993963C12.7675 0.0993963 12.763 0.103817 12.7564 0.106027C12.7542 0.106027 12.7498 0.108237 12.7476 0.110448C12.7432 0.112658 12.7365 0.114868 12.7321 0.119289C12.7144 0.12813 12.6945 0.136971 12.6768 0.145812L3.57724 5.02383C3.55293 5.0371 3.53083 5.05036 3.50652 5.06362C3.48441 5.07688 3.46231 5.09235 3.44021 5.10782C3.42916 5.11666 3.41811 5.1255 3.40705 5.13435C3.39821 5.14098 3.38937 5.14761 3.38053 5.15424C3.3739 5.15866 3.36727 5.16529 3.36285 5.16971C3.34959 5.18076 3.33854 5.19181 3.32528 5.20286C3.31864 5.20949 3.31201 5.21613 3.30538 5.22276C3.29433 5.23381 3.28328 5.24486 3.27223 5.25591C3.2656 5.26254 3.25897 5.27138 3.25234 5.27801C3.2435 5.28685 3.23687 5.2979 3.22802 5.30675C3.22802 5.30675 3.22581 5.31117 3.2236 5.31338C3.21697 5.32001 3.21034 5.32885 3.20592 5.33769C3.19708 5.34874 3.18824 5.362 3.1794 5.37526C3.17498 5.38189 3.16835 5.39074 3.16393 5.39737C3.16393 5.39737 3.16172 5.40179 3.15951 5.404C3.15067 5.41505 3.14404 5.42831 3.13519 5.44157L3.13298 5.44378ZM5.90685 7.82864C5.90685 7.80212 5.90685 7.77781 5.90906 7.75128C5.90906 7.74244 5.90906 7.73581 5.91127 7.72697C5.91127 7.70929 5.91348 7.69382 5.91569 7.67613C5.91569 7.66729 5.9179 7.65624 5.92011 7.6474C5.92232 7.63193 5.92453 7.61646 5.92895 7.60099C5.92895 7.58993 5.93337 7.58109 5.93558 7.57225C5.93779 7.55678 5.94221 7.54352 5.94663 7.52805C5.94884 7.51921 5.95105 7.50815 5.95547 7.49931C5.95989 7.48384 5.96431 7.47058 5.96873 7.45511C5.97094 7.44627 5.97537 7.43743 5.97758 7.42859C5.98421 7.41311 5.98863 7.39764 5.99526 7.38217C5.99747 7.37554 6.00189 7.3667 6.0041 7.36007C6.01294 7.33797 6.02399 7.31586 6.03504 7.29597C6.03504 7.29597 6.03504 7.29597 6.03504 7.29376C6.14334 7.08379 6.31132 6.90697 6.52793 6.79203L9.70406 5.08351C9.9295 4.96195 10.1704 4.92216 10.3959 4.94869C10.4268 4.95311 10.4578 4.95753 10.4887 4.96416C10.4953 4.96416 10.502 4.96637 10.5064 4.96858C10.5196 4.97079 10.5329 4.97521 10.5462 4.97742C10.5528 4.97742 10.5572 4.97963 10.5638 4.98184C10.5904 4.98847 10.6147 4.99731 10.639 5.00394C10.6434 5.00394 10.6478 5.00615 10.6523 5.00836C10.6655 5.01278 10.6766 5.0172 10.6898 5.02383C10.6965 5.02604 10.7031 5.02825 10.7097 5.03267C10.723 5.0371 10.734 5.04373 10.7473 5.04815C10.7495 5.04815 10.7539 5.05036 10.7561 5.05257C10.7804 5.06362 10.8026 5.07467 10.8269 5.08793C10.8335 5.09235 10.8423 5.09677 10.849 5.10119C10.86 5.10782 10.8711 5.11445 10.8799 5.11887C10.8888 5.12329 10.8954 5.12993 10.9042 5.13435C10.9197 5.1454 10.9352 5.15424 10.9506 5.16529C10.9595 5.17192 10.9683 5.17855 10.9772 5.18518C10.986 5.19181 10.9948 5.19844 11.0037 5.20507C11.0125 5.2117 11.0214 5.21834 11.028 5.22718C11.0368 5.23381 11.0435 5.24044 11.0523 5.24707C11.0656 5.26033 11.081 5.27359 11.0943 5.28685C11.1009 5.29348 11.1076 5.30012 11.112 5.30675C11.1208 5.31559 11.1297 5.32443 11.1385 5.33548C11.1451 5.34211 11.1518 5.34874 11.1562 5.35537C11.1672 5.36642 11.1761 5.37968 11.1871 5.39074C11.1916 5.39737 11.1982 5.404 11.2026 5.41063C11.2137 5.4261 11.2247 5.43936 11.2358 5.45483C11.2402 5.46146 11.2446 5.46809 11.249 5.47472C11.2579 5.48799 11.2667 5.50125 11.2733 5.51451C11.2778 5.52114 11.28 5.52556 11.2844 5.53219C11.2954 5.54987 11.3043 5.56977 11.3153 5.58745C11.3175 5.59187 11.3197 5.5985 11.3242 5.60292C11.3308 5.61839 11.3396 5.63386 11.3463 5.64933C11.3485 5.65596 11.3529 5.6626 11.3551 5.66923C11.364 5.68912 11.3706 5.70901 11.3772 5.7289C11.3772 5.7289 11.3772 5.73111 11.3772 5.73332C11.3838 5.75543 11.3905 5.77753 11.3971 5.79742C11.3971 5.80405 11.4015 5.81068 11.4015 5.81731C11.4059 5.835 11.4104 5.85268 11.4148 5.87036C11.4148 5.87478 11.417 5.88141 11.4192 5.88583C11.4236 5.90793 11.4281 5.93225 11.4303 5.95435C11.4303 5.95877 11.4303 5.9654 11.4303 5.96982C11.4325 5.98971 11.4347 6.00739 11.4369 6.02729C11.4369 6.03392 11.4369 6.04055 11.4369 6.04718C11.4369 6.07149 11.4391 6.09581 11.4391 6.12012V9.73388C11.4391 10.1693 11.2004 10.5671 10.818 10.7727L9.23106 11.6258C8.88184 11.8137 8.4619 11.8137 8.11268 11.6258L6.52572 10.7727C6.42626 10.7196 6.33564 10.6511 6.25828 10.5738C6.23396 10.5495 6.21186 10.5251 6.18976 10.5008C6.18534 10.4942 6.18092 10.4898 6.17429 10.4832C6.16545 10.4721 6.15661 10.461 6.14776 10.45C6.14334 10.4434 6.13671 10.4367 6.13229 10.4301C6.11461 10.4058 6.09693 10.3793 6.08146 10.355C6.08146 10.3527 6.07925 10.3505 6.07704 10.3483C6.07041 10.3373 6.06378 10.3262 6.05935 10.3152C6.05493 10.3063 6.0483 10.2975 6.04388 10.2864C6.03725 10.2754 6.03283 10.2643 6.02841 10.2555C6.02178 10.2444 6.01736 10.2334 6.01294 10.2223C6.00852 10.2135 6.0041 10.2047 5.99968 10.1936C5.99084 10.1737 5.98421 10.1538 5.97537 10.1339C5.97315 10.1251 5.96873 10.1163 5.96652 10.1074C5.9621 10.0941 5.95768 10.0787 5.95326 10.0654C5.95105 10.0566 5.94884 10.0477 5.94663 10.0389C5.94221 10.0212 5.93779 10.0035 5.93337 9.98363C5.93337 9.97921 5.93116 9.97479 5.93116 9.97037C5.92674 9.94827 5.92232 9.92396 5.92011 9.90186C5.92011 9.89522 5.92011 9.88859 5.9179 9.87975C5.91569 9.86207 5.91348 9.84439 5.91348 9.82671C5.91348 9.82008 5.91348 9.81345 5.91348 9.8046C5.91348 9.78029 5.91127 9.75598 5.91127 9.73167V7.82643L5.90685 7.82864Z" fill="url(#paint2_linear_1316_1707)"/>
<defs>
<linearGradient id="paint0_linear_1316_1707" x1="16.9913" y1="13.3733" x2="7.7092" y2="30.1706" gradientUnits="userSpaceOnUse">
<stop stop-color="#007FF4"/>
<stop offset="1" stop-color="#014A8D"/>
</linearGradient>
<linearGradient id="paint1_linear_1316_1707" x1="12.7021" y1="9.74592" x2="5.76582" y2="21.7044" gradientUnits="userSpaceOnUse">
<stop stop-color="#007FF4"/>
<stop offset="1" stop-color="#014A8D"/>
</linearGradient>
<linearGradient id="paint2_linear_1316_1707" x1="9.11322" y1="6.3257" x2="4.56248" y2="13.9727" gradientUnits="userSpaceOnUse">
<stop stop-color="#007FF4"/>
<stop offset="1" stop-color="#014A8D"/>
</linearGradient>
</defs>
</svg>
