<svg width="25" height="34" viewBox="0 0 25 34" fill="none" xmlns="http://www.w3.org/2000/svg">
<g clip-path="url(#clip0_1629_382)">
<path d="M20.0821 2.75498V1.18803C20.0821 0.770238 19.6315 0.508373 19.2711 0.717695L15.7563 2.75583V1.18803C15.7563 0.770238 15.3057 0.508373 14.9453 0.717695L0.886013 8.86854C0.718922 8.96515 0.615967 9.14481 0.615967 9.33888V26.2685C0.615967 26.4626 0.718922 26.6414 0.886013 26.7389L12.2415 33.3228C12.4086 33.4194 12.6153 33.4194 12.7824 33.3228L24.1379 26.7389C24.305 26.6423 24.4079 26.4626 24.4079 26.2685V1.18803C24.4079 0.770238 23.9573 0.508373 23.5969 0.717695L20.0821 2.75498ZM1.697 9.65329L14.6744 2.12871V15.9779L8.18993 19.688L1.697 15.9228V9.65329ZM8.45576 20.7846L15.4837 16.7643C15.6525 16.6677 15.7571 16.4872 15.7571 16.2923V4.00922L19.0011 2.12786V20.9389L10.3495 25.955L1.697 20.9389V17.1762L7.91735 20.7838C8.0836 20.8804 8.28867 20.8813 8.45576 20.7855V20.7846ZM23.326 25.9558L12.5115 32.2253L1.697 25.9558V22.1931L10.0786 27.0524C10.2457 27.149 10.4524 27.149 10.6195 27.0524L19.8121 21.7228C19.9792 21.6262 20.0821 21.4465 20.0821 21.2524V4.00922L23.326 2.12786V25.955V25.9558Z" fill="#D0FF16"/>
</g>
<defs>
<clipPath id="clip0_1629_382">
<rect width="23.792" height="32.7517" fill="white" transform="translate(0.615967 0.644043)"/>
</clipPath>
</defs>
</svg>
