<svg width="129" height="40" viewBox="0 0 129 40" fill="none" xmlns="http://www.w3.org/2000/svg">
<g clip-path="url(#clip0_416_12614)">
<path fill-rule="evenodd" clip-rule="evenodd" d="M39.7391 29.8337C38.146 29.8337 36.774 29.4819 35.6223 28.7782C34.4699 28.0746 33.5772 27.0926 32.9434 25.8316C32.3091 24.5713 31.9922 23.1061 31.9922 21.4354C31.9922 19.7809 32.3091 18.3232 32.9434 17.0622C33.5772 15.8019 34.4699 14.8162 35.6223 14.1044C36.774 13.3933 38.146 13.0371 39.7391 13.0371C41.5943 13.0371 43.1059 13.4817 44.2738 14.3709C45.441 15.2608 46.1868 16.5018 46.5118 18.0946H44.3547C44.1069 17.0896 43.6008 16.2814 42.8357 15.6705C42.07 15.0596 41.0378 14.7539 39.7391 14.7539C38.5793 14.7539 37.5665 15.0204 36.7005 15.554C35.8345 16.0877 35.1659 16.8536 34.6947 17.8512C34.2228 18.8487 33.9868 20.0437 33.9868 21.4354C33.9868 22.8271 34.2228 24.0221 34.6947 25.0196C35.1659 26.0172 35.8345 26.7831 36.7005 27.3168C37.5665 27.8504 38.5793 28.1169 39.7391 28.1169C41.0378 28.1169 42.07 27.8193 42.8357 27.224C43.6008 26.6287 44.1069 25.836 44.3547 24.8459H46.5118C46.1868 26.4083 45.441 27.63 44.2738 28.5111C43.1059 29.3928 41.5943 29.8337 39.7391 29.8337ZM49.8281 29.5554V13.3155H55.0699C56.3374 13.3155 57.374 13.5241 58.1783 13.9419C58.982 14.3597 59.5772 14.932 59.9638 15.6587C60.3504 16.386 60.544 17.1899 60.544 18.0716C60.544 19.0922 60.2694 20.0126 59.7203 20.832C59.1713 21.6521 58.3171 22.2325 57.1573 22.5725L60.7065 29.5554H58.4099L55.1166 22.8508H51.7767V29.5554L49.8281 29.5554ZM51.7767 21.3196H54.9311C56.183 21.3196 57.0957 21.0176 57.6678 20.4148C58.2399 19.8114 58.5257 19.038 58.5257 18.0947C58.5257 17.1357 58.2437 16.3741 57.6796 15.8094C57.115 15.2452 56.1911 14.9625 54.9074 14.9625H51.7767V21.3196ZM63.9997 13.3155V29.5554L74.0426 29.5554V27.9544H65.9483V22.1546H73.3473V20.5773H65.9483V14.9164H74.0426V13.3155H63.9997ZM82.7172 29.8337C81.5262 29.8337 80.4909 29.617 79.6094 29.1842C78.7279 28.7514 78.0475 28.1481 77.5681 27.3747C77.0887 26.6013 76.8491 25.704 76.8491 24.6834H78.8904C78.8904 25.3179 79.0373 25.9014 79.3311 26.435C79.6244 26.9687 80.0539 27.394 80.6186 27.7109C81.1826 28.0279 81.8823 28.1867 82.7172 28.1867C83.8153 28.1867 84.6657 27.9239 85.269 27.3977C85.8716 26.8722 86.1735 26.2146 86.1735 25.4256C86.1735 24.7762 86.0341 24.2543 85.7558 23.8596C85.4775 23.4654 85.1021 23.1447 84.6309 22.8969C84.159 22.6497 83.618 22.433 83.0073 22.2474C82.3966 22.0618 81.7584 21.8532 81.0936 21.621C79.841 21.1882 78.9134 20.6508 78.3108 20.0088C77.7075 19.3668 77.4056 18.528 77.4056 17.4912C77.3901 16.6257 77.5918 15.8561 78.0089 15.1829C78.4266 14.5104 79.018 13.9848 79.7831 13.6056C80.5488 13.2264 81.4571 13.0371 82.5086 13.0371C83.5445 13.0371 84.4454 13.2308 85.2105 13.6168C85.9762 14.0042 86.5714 14.5372 86.9966 15.2178C87.4217 15.8984 87.6421 16.6718 87.6577 17.538H85.6164C85.6164 17.0896 85.5006 16.6444 85.269 16.2041C85.0368 15.7633 84.685 15.4033 84.2132 15.125C83.7413 14.8467 83.1498 14.7072 82.4389 14.7072C81.5574 14.6922 80.8346 14.9164 80.2706 15.3803C79.7059 15.8442 79.4239 16.4862 79.4239 17.3057C79.4239 18.0019 79.6213 18.5355 80.0153 18.9066C80.4094 19.2778 80.9622 19.5835 81.6738 19.8232C82.3847 20.063 83.2046 20.3376 84.1322 20.6464C84.9054 20.9248 85.6008 21.2498 86.2196 21.621C86.8378 21.9921 87.3215 22.4716 87.6695 23.0594C88.0175 23.6472 88.1912 24.3976 88.1912 25.3098C88.1912 26.0832 87.9901 26.8143 87.588 27.5023C87.1858 28.1904 86.5794 28.7515 85.7676 29.1842C84.9558 29.617 83.9386 29.8337 82.7172 29.8337ZM95.1488 14.9164V29.5554H97.0974V14.9164H101.944V13.3155H90.301V14.9164H95.1488ZM101.898 29.5554L107.882 13.3155H109.947L115.908 29.5554H113.843L112.359 25.3796H105.447L103.939 29.5554H101.898ZM111.779 23.8017L108.903 15.7745L106.027 23.8017H111.779ZM119.062 13.3155V29.5554H128.571V28.0011H121.011V13.3155H119.062Z" fill="#333333"/>
<g clip-path="url(#clip1_416_12614)">
<path d="M22.0821 5.75498V4.18803C22.0821 3.77024 21.6315 3.50837 21.2711 3.7177L17.7563 5.75583V4.18803C17.7563 3.77024 17.3057 3.50837 16.9453 3.7177L2.88601 11.8685C2.71892 11.9652 2.61597 12.1448 2.61597 12.3389V29.2685C2.61597 29.4626 2.71892 29.6414 2.88601 29.7389L14.2415 36.3228C14.4086 36.4194 14.6153 36.4194 14.7824 36.3228L26.1379 29.7389C26.305 29.6423 26.4079 29.4626 26.4079 29.2685V4.18803C26.4079 3.77024 25.9573 3.50837 25.5969 3.7177L22.0821 5.75498ZM3.697 12.6533L16.6744 5.12871V18.9779L10.1899 22.688L3.697 18.9228V12.6533ZM10.4558 23.7846L17.4837 19.7643C17.6525 19.6677 17.7571 19.4872 17.7571 19.2923V7.00922L21.0011 5.12786V23.9389L12.3495 28.955L3.697 23.9389V20.1762L9.91735 23.7838C10.0836 23.8804 10.2887 23.8813 10.4558 23.7855V23.7846ZM25.326 28.9558L14.5115 35.2253L3.697 28.9558V25.1931L12.0786 30.0524C12.2457 30.149 12.4524 30.149 12.6195 30.0524L21.8121 24.7228C21.9792 24.6262 22.0821 24.4465 22.0821 24.2524V7.00922L25.326 5.12786V28.955V28.9558Z" fill="#333333"/>
</g>
</g>
<defs>
<clipPath id="clip0_416_12614">
<rect width="128.571" height="40" rx="4" fill="white"/>
</clipPath>
<clipPath id="clip1_416_12614">
<rect width="23.792" height="32.7517" fill="white" transform="translate(2.61597 3.64404)"/>
</clipPath>
</defs>
</svg>
